/* XPM */
static char *SnowTiles[] = {
/* columns rows colors chars-per-pixel */
"128 128 9 1 ",
"  c None",
". c #060608",
"X c #122020",
"o c #143464",
"O c #285CC4",
"+ c #249FDE",
"@ c #20D6C7",
"# c #A6FCDB",
"$ c white",
/* pixels */
"                o@+++oo+oooo@+ooo@+++oo+oooo@+ooo@+++oo+oooo@+ooXXXXXXXXXXXXXXXX                                                ",
"                o@++oo@++oo@@++oo@++oo@++oo@@++oo@++oo@++oo@@++oX@@@@@@@@@@@@@+X                                                ",
"                o@++o@@++oo@@++oo@++o@@++oo@@++oo@++o@@++oo@@++oX@@@@@@@@@@@@@+X                                                ",
"                +o+oo@+++oo@++oo+o+oo@+++oo@++oo+o+oo@+++oo@++ooX@@@@@@@@@@@@@+X                                                ",
"                ++oooo+++ooo+o++++oooo+++ooo+o++++oooo+++ooo+o++X@@@@@@@@@@@@@+X                                                ",
"                +o@++oo+ooooo@+++o@++oo+ooooo@+++o@++oo+ooooo@++X@@@@@@@@@@@@@+X                                                ",
"                +o@+++oo++oo@@+++o@+++oo++oo@@+++o@+++oo++oo@@++X@@@@@@@@@@@@@+X                                                ",
"                o@@+++o@++oo@@++o@@+++o@++oo@@++o@@+++o@++oo@@++X++++++++++++++X                                                ",
"                o@@+++o@++oo@@++o@@+++o@++oo@@++o@@+++o@++oo@@++XXXXXXXXXXXXXXXX                                                ",
"                o@@+++o@+oo@@+++o@@+++o@+oo@@+++o@@+++o@+oo@@+++ X@@@X@+++X+OOX                                                 ",
"                o@+++oo@@o@@@+++o@+++oo@@o@@@+++o@+++oo@@o@@@+++ X@@@X@+++X+OOX                                                 ",
"                o@++oo@@ooo@@+++o@++oo@@ooo@@+++o@++oo@@ooo@@+++ X@@@X@+++X+OOX                                                 ",
"                +o@oo+@+oo++oooo+o@oo+@+oo++oooo+o@oo+@+oo++oooo X@@@X@+++X+OOX                                                 ",
"                o@@+oo++oo++o+ooo@@+oo++oo++o+ooo@@+oo++oo++o+oo X@@@X@+++X+OOX                                                 ",
"                o@@++oo+oooo@++oo@@++oo+oooo@++oo@@++oo+oooo@++o X@@@X@+++X+OOX                                                 ",
"                oooooooooooooooooooooooooooooooooooooooooooooooo XX@@X@+++X+OXX                                                 ",
"                o+OOOooOoooo+Oooo+OOOooOoooo+Oooo@+++oo+oooo@+oo  X@@X@+++X+OX                                                  ",
"                o+OOoo+OOoo++OOoo+OOoo+OOoo++OOoo@++oo@++oo@@++o  X@@X@+++X+OX                                                  ",
"                o+OOo++OOoo++OOoo+OOo++OOoo++OOoo@++o@@++oo@@++o  X@@X@+++X+OX                          oo                      ",
"                OoOoo+OOOoo+OOooOoOoo+OOOoo+OOoo+o+oo@+++oo@++oo  X@@X@+++X+OX                         o@$o                     ",
"                OOooooOOOoooOoOOOOooooOOOoooOoOO++oooo+++ooo+o++  X@@X@+++X+OX                        o@@$$o                    ",
"                Oo+OOooOooooo+OOOo+OOooOooooo+OO+o@++oo+ooooo@++  X@@X@+++X+OX                       o@@+$@$o                   ",
"                Oo+OOOooOOoo++OOOo+OOOooOOoo++OO+o@+++oo++oo@@++  X@@X@+++X+OX                     oo+@++$@@@oo                 ",
"                o++OOOo+OOoo++OOo++OOOo+OOoo++OOo@@+++o@++oo@@++  X@@X@+++X+OX                     o@++++$$@$+o                 ",
"                o++OOOo+OOoo++OOo++OOOo+OOoo++OOo@@+++o@++oo@@++  XX@X@+++X+XX                  oooo@@+++$$$++o                 ",
"                o++OOOo+Ooo++OOOo++OOOo+Ooo++OOOo@@+++o@+oo@@+++  X@XX@+++XX+X                  o$$oO@@++$+++$oo                ",
"                o+OOOoo++o+++OOOo+OOOoo++o+++OOOo@+++oo@@o@@@+++  X@@XXXXXX++X                  o@@+OO@@@+O+@$$o                ",
"                o+OOoo++ooo++OOOo+OOoo++ooo++OOOo@++oo@@ooo@@+++  X@@++++++++X                   o+++OO@OO++@@Oo                ",
"                Oo+ooO+OooOOooooOo+ooO+OooOOoooo+o@oo+@+oo++oooo XX@@++++++++XX                   o+OOOOoO+@@OOo                ",
"                o++OooOOooOOoOooo++OooOOooOOoOooo@@+oo++oo++o+oo X@@+++++++++OX                    oOoOoooOOoOo                 ",
"                o++OOooOoooo+OOoo++OOooOoooo+OOoo@@++oo+oooo@++o XOOOOOOOOOOOOX                     ooooooooOo                  ",
"                oooooooooooooooooooooooooooooooooooooooooooooooo  XXXXXXXXXXXX                       ooo  ooo                   ",
"                $$$$$$$$$$$$$$$$$$$$$$$$$$$$$$$$$$$$$$$$$$$$$$$$$$$$$$$$$$$$$$$$$$$$$$$$$$$$$$$$o@+++oo+oooo@+oo                ",
"                $$$$+$$$$@$$$$$$$$$$+$$$$@$$$$$$$$$$+$$$$@$$$$$$$$$$+$$$$@$$$$$$$$$$+$$$$@$$$$$$o@++oo@++oo@@++o                ",
"                $$$$$$$$@@@@$$$$$$$$$$$$@@@@$$$$$$$$$$$$@@@@$$$$$$$$$$$$@@@@$$$$$$$$$$$$@@@@$$$$o@++o@@++oo@@++o                ",
"                $@+$$$$@@++@@@@$$@+$$$$@@++@@@@$$@+$$$$@@++@@@@$$@+$$$$@@++@@@@$$@+$$$$@@++@@@@$+o+oo@+++oo@++oo                ",
"                $$$$$+$$++++++$$$$$$$+$$++++++$$$$$$$+$$++++++$$$$$$$+$$++++++$$$$$$$+$$++++++$$++oooo+++ooo+o++                ",
"                $$@@$$$$$++++$$$$$@@$$$$$++++$$$$$@@$$$$$++++$$$$$@@$$$$$++++$$$$$@@$$$$$++++$$$+o@++oo+ooooo@++                ",
"                $@@@@@@$$$$$$$$$$@@@@@@$$$$$$$$$$@@@@@@$$$$$$$$$$@@@@@@$$$$$$$$$$@@@@@@$$$$$$$$$+o@+++oo++oo@@++                ",
"                @@++++++++$$$$$$@@++++++++$$$$$$@@++++++++$$$$$$@@++++++++$$$$$$@@++++++++$$$$$$o@@+++o@++oo@@++                ",
"                $$++++++$$$$@$$$$$++++++$$$$@$$$$$++++++$$$$@$$$$$++++++$$$$@$$$$$++++++$$$$@$$$o@@+++o@++oo@@++                ",
"                $$$$$$$$$$$@@@+$$$$$$$$$$$$@@@+$$$$$$$$$$$$@@@+$$$$$$$$$$$$@@@+$$$$$$$$$$$$@@@+$o@@+++o@+oo@@+++                ",
"                $$$$$$$$$$@@++$$$$$$$$$$$$@@++$$$$$$$$$$$$@@++$$$$$$$$$$$$@@++$$$$$$$$$$$$@@++$$o@+++oo@@o@@@+++                ",
"                $$$$$$$++$$$$$$$$$$$$$$++$$$$$$$$$$$$$$++$$$$$$$$$$$$$$++$$$$$$$$$$$$$$++$$$$$$$o@++oo@@ooo@@+++                ",
"                $$$$@@$$$$++$$$$$$$$@@$$$$++$$$$$$$$@@$$$$++$$$$$$$$@@$$$$++$$$$$$$$@@$$$$++$$$$+o@oo+@+oo++oooo                ",
"                @$$$$@++$$$$$$@@@$$$$@++$$$$$$@@@$$$$@++$$$$$$@@@$$$$@++$$$$$$@@@$$$$@++$$$$$$@@o@@+oo++oo++o+oo                ",
"                @@@$$$$$++$$$@@+@@@$$$$$++$$$@@+@@@$$$$$++$$$@@+@@@$$$$$++$$$@@+@@@$$$$$++$$$@@+o@@++oo+oooo@++o                ",
"                ++$$$+$$$$$$$+++++$$$+$$$$$$$+++++$$$+$$$$$$$+++++$$$+$$$$$$$+++++$$$+$$$$$$$+++oooooooooooooooo                ",
"                $$$$$$$$$$$$$$$$$$$$$$$$$$$$$$$$$$$$$$$$$$$$$$$$XXXooXXXXXXXXXXXXXXooXXXXXXXXXXX                                ",
"                $$$$+$$$$@$$$$$$$$$$+$$$$@$$$$$$$$$$+$$$$@$$$$$$ooXXXXXoooXXXXXXooXXXXXoooXXXXXX                                ",
"                $$$$$$$$@@@@$$$$$$$$$$$$oo@@$$$$$$$$$$$$@@@@$$$$XXXXXXXXXooXXXXXXXXXXXXXXooXXXXX                                ",
"                $@+$$$$@@++@@@@$$@+$$$$o@$o@@@@$$@+$$$$@@++@@@@$oooooooooooooooooooooooooooooooo                                ",
"                $$$$$+$$++++++$$$$$$$+o@@$$o++$$$$$$$+$$++++++$$ooOOOoooOooOoOOoooOOOoooOooOoOOo                                ",
"                $$@@$$$$$++++$$$$$@@$o@@+$@$o$$$$$@@$$$$$++++$$$OOOOOOOOOOOOOOOOOOOOOOOOOOOOOOOO                                ",
"                $@@@@@@$$$$$$$$$$@@oo+@++$@@@oo$$@@@@@@$$$$$$$$$OOOOO+@@@@+OO+OOOOOOO+@@@@+OO+OO                                ",
"                @@++++++++$$$$$$@@+o@++++$$@$+o$@@++++++++$$$$$$OOOOOOOOOOOOOOOOOOOOOOOOOOOOOOOO                                ",
"                $$++++++$$$$@$$$oooo@@+++$$$++o$$$++++++$$$$@$$$OOOOOOOOOOOOOOOOOOOOOOOOOOOOOOOO                                ",
"                $$$$$$$$$$$@@@+$o$$oO@@++$+++$oo$$$$$$$$$$$@@@+$OOOOOOOOOOOOOOOOOOOOOOOOOOOOOOOO                                ",
"                $$$$$$$$$$@@++$$o@@+OO@@@+O+@$$o$$$$$$$$$$@@++$$OOO++@+OOOOOOOOOOOO++@+OOOOOOOOO                                ",
"                $$$$$$$++$$$$$$$$o+++OO@OO++@@Oo$$$$$$$++$$$$$$$OOOOOOOOOOOOOOOOOOOOOOOOOOOOOOOO                                ",
"                $$$$@@$$$$++$$$$$$o+OOOOoO+@@OOo$$$$@@$$$$++$$$$OOOOOOOOOOOOOOOOOOOOOOOOOOOOOOOO                                ",
"                @$$$$@++$$$$$$@@@$$oOoOoooOOoOo@@$$$$@++$$$$$$@@OOOOOOOOOOO+@++OOOOOOOOOOOO+@++O                                ",
"                @@@$$$$$++$$$@@+@@@$ooooooooOo@+@@@$$$$$++$$$@@+OOOOOOOOOOOOOOOOOOOOOOOOOOOOOOOO                                ",
"                ++$$$+$$$$$$$+++++$$$ooo$$ooo+++++$$$+$$$$$$$+++OOOOOOOOOOOOOOOOOOOOOOOOOOOOOOOO                                ",
".$.@$$$$$$$$#.$.                                $$$$$$$$$$$$$$$$OOOOOOOOOOOOOOOOOOOOOOOOOOOOOOOO$$$$$$$$$$$$$$$$                ",
".$.@$$$$$$$$#.$.                                $$$$+$$$$@$$$$$$OOOOOOOOOOOOOOOOOOOOOOOOOOOOOOOO$$$$+$$$$@$$$$$$                ",
".#.@$$$$$$$$#.#.                                $$$$$$$$oo@@$$$$OOOOOOOOOOOOOOOOOOOOOOOOOOOOOOOO$$$$$$$$@@@@$$$$                ",
".@.@$$$$$$$$#.@.                                $@+$$$$o@$o@@@@$OOOO+@@@@+OO+OOOOOOO+@@@@+OO+OOO$@+$$$$@@++@@@@$                ",
"...@$$$$$$$$#...                                $$$$$+o@@$$o++$$OOOOOOOOOOOOOOOOOOOOOOOOOOOOOOOO$$$$$+$$++++++$$                ",
".$.@$$$$$$$$#.$.                                $$@@$o@@+$@$o$$$OOOOOOOOOOOOOOOOOOOOOOOOOOOOOOOO$$@@$$$$$++++$$$                ",
".$.@$$$$$$$$#.$.                                $@@oo+@++$@@@oo$OOOOOOOOOOOOOOOOOOOOOOOOOOOOOOOO$@@@@@@$$$$$$$$$                ",
".$.@$$$$$$$$#.$.                                @@+o@++++$$@$+o$OOOOOOOOOOOOOOOOOOOOOOOOOOOOOOOO@@++++++++$$$$$$                ",
".$.@$$$$$$$$#.$.                                oooo@@+++$$$++o$OOOOOOOOOOOOOOOOOOOOOOOOOOOOOOOO$$++++++$$$$@$$$                ",
".$.@$$$$$$$$#.$.                                o$$oO@@++$+++$ooOOOOOOOOOOOOOOOOOOOOOOOOOOOOOOOO$$$$$$$$$$$@@@+$                ",
".#.@$$$$$$$$#.#.                                o@@+OO@@@+O+@$$oOOO++@+OOOOOOOOOOOO++@+OOOOOOOOO$$$$$$$$$$@@++$$                ",
".@.@$$$$$$$$#.@.                                $o+++OO@OO++@@OoOOOOOOOOOOOOOOOOOOOOOOOOOOOOOOOO$$$$$$$++$$$$$$$                ",
"...@$$$$$$$$#...                                $$o+OOOOoO+@@OOoOOOOOOOOOOOOOOOOOOOOOOOOOOOOOOOO$$$$@@$$$$++$$$$                ",
".@.@$$$$$$$$#.@.                                @$$oOoOoooOOoOo@OOOOOOOOOOO+@++OOOOOOOOOOOO+@++O@$$$$@++$$$$$$@@                ",
".$.@$$$$$$$$#.$.                                @@@$ooooooooOo@+OOOOOOOOOOOOOOOOOOOOOOOOOOOOOOOO@@@$$$$$++$$$@@+                ",
".$.@$$$$$$$$#.$.                                ++$$$ooo$$ooo+++OOOOOOOOOOOOOOOOOOOOOOOOOOOOOOOO++$$$+$$$$$$$+++                ",
"                                                $$$$$$$$$$$$$$$$................................$$$$$$$$$$$$$$$$                ",
"                                                $$$$+$$$$@$$$$$$$$@.@#$$$$$.@#$$$$@.@#$$$$$.@#$$$$$$+$$$$@$$$$$$                ",
"                                                $$$$$$$$@@@@$$$$................................$$$$$$$$@@@@$$$$                ",
"                                                $@+$$$$@@++@@@@$@@@@@@@@@@@@@@@@@@@@@@@@@@@@@@@@$@+$$$$@@++@@@@$                ",
"                                                $$$$$+$$++++++$$$$$$$$$$$$$$$$$$$$$$$$$$$$$$$$$$$$$$$+$$++++++$$                ",
"                                                $$@@$$$$$++++$$$$$$$$$$$$$$$$$$$$$$$$$$$$$$$$$$$$$@@$$$$$++++$$$                ",
"                                                $@@@@@@$$$$$$$$$$$$$$$$$$$$$$$$$$$$$$$$$$$$$$$$$$@@@@@@$$$$$$$$$                ",
"                                                @@++++++++$$$$$$$$$$$$$$$$$$$$$$$$$$$$$$$$$$$$$$@@++++++++$$$$$$                ",
"                                                $$++++++$$$$@$$$$$$$$$$$$$$$$$$$$$$$$$$$$$$$$$$$$$++++++$$$$@$$$                ",
"                                                $$$$$$$$$$$@@@+$$$$$$$$$$$$$$$$$$$$$$$$$$$$$$$$$$$$$$$$$$$$@@@+$                ",
"                                                $$$$$$$$$$@@++$$$$$$$$$$$$$$$$$$$$$$$$$$$$$$$$$$$$$$$$$$$$@@++$$                ",
"                                                $$$$$$$++$$$$$$$$$$$$$$$$$$$$$$$$$$$$$$$$$$$$$$$$$$$$$$++$$$$$$$                ",
"                                                $$$$@@$$$$++$$$$################################$$$$@@$$$$++$$$$                ",
"                                                @$$$$@++$$$$$$@@................................@$$$$@++$$$$$$@@                ",
"                                                @@@$$$$$++$$$@@+$$@.@#$$$$$.@#$$$$@.@#$$$$$.@#$$@@@$$$$$++$$$@@+                ",
"                                                ++$$$+$$$$$$$+++................................++$$$+$$$$$$$+++                ",
"                                                $$$$$$$$$$$$$$$$XXXooXXXXXXXXXXXXXXooXXXXXXXXXXX$$$$$$$$$$$$$$$$                ",
"                                                $$$$+$$$$@$$$$$$ooXXXXXoooXXXXXXooXXXXXoooXXXXXX$$$$+$$$$@$$$$$$                ",
"                                                $$$$$$$$oo@@$$$$XXXXXXXXXooXXXXXXXXXXXXXXooXXXXX$$$$$$$$@@@@$$$$                ",
"                                                $@+$$$$o@$o@@@@$oooooooooooooooooooooooooooooooo$@+$$$$@@++@@@@$                ",
"                                                $$$$$+o@@$$o++$$ooOOOoooOooOoOOoooOOOoooOooOoOOo$$$$$+$$++++++$$                ",
"                                                $$@@$o@@+$@$o$$$OOOOOOOOOOOOOOOOOOOOOOOOOOOOOOOO$$@@$$$$$++++$$$                ",
"                                                $@@oo+@++$@@@oo$OOOOO+@@@@+OO+OOOOOOO+@@@@+OO+OO$@@@@@@$$$$$$$$$                ",
"                                                @@+o@++++$$@$+o$OOOOOOOOOOOOOOOOOOOOOOOOOOOOOOOO@@++++++++$$$$$$                ",
"                                                oooo@@+++$$$++o$OOOOOOOOOOOOOOOOOOOOOOOOOOOOOOOO$$++++++$$$$@$$$                ",
"                                                o$$oO@@++$+++$ooOOOOOOOOOOOOOOOOOOOOOOOOOOOOOOOO$$$$$$$$$$$@@@+$                ",
"                                                o@@+OO@@@+O+@$$oOOO++@+OOOOOOOOOOOO++@+OOOOOOOOO$$$$$$$$$$@@++$$                ",
"                                                $o+++OO@OO++@@OoOOOOOOOOOOOOOOOOOOOOOOOOOOOOOOOO$$$$$$$++$$$$$$$                ",
"                                                $$o+OOOOoO+@@OOoOOOOOOOOOOOOOOOOOOOOOOOOOOOOOOOO$$$$@@$$$$++$$$$                ",
"                                                @$$oOoOoooOOoOo@OOOOOOOOOOO+@++OOOOOOOOOOOO+@++O@$$$$@++$$$$$$@@                ",
"                                                @@@$ooooooooOo@+OOOOOOOOOOOOOOOOOOOOOOOOOOOOOOOO@@@$$$$$++$$$@@+                ",
"                                                ++$$$ooo$$ooo+++OOOOOOOOOOOOOOOOOOOOOOOOOOOOOOOO++$$$+$$$$$$$+++                ",
"                                                                                                                                ",
"                                                                                                                                ",
"                                                                                                                                ",
"                                                                                                                                ",
"                                                                                                                                ",
"                                                                                                                                ",
"                                                                                                                                ",
"                                                                                                                                ",
"                                                                                                                                ",
"                                                                                                                                ",
"                                                                                                                                ",
"                                                                                                                                ",
"                                                                                                                                ",
"                                                                                                                                ",
"                                                                                                                                ",
"                                                                                                                                "
};
