/* XPM */
static char *SnowTiles_7[] = {
/* columns rows colors chars-per-pixel */
"128 96 18 1 ",
"  c None",
". c #060608",
"X c #141013",
"o c #221C1A",
"O c #122020",
"+ c #322B28",
"@ c #71413B",
"# c #143464",
"$ c #5A4E44",
"% c #796755",
"& c #BB7547",
"* c #A08662",
"= c #DBA463",
"- c #285CC4",
"; c #249FDE",
": c #20D6C7",
"> c #C7B08B",
", c #F4D29C",
/* pixels */
"                >%%%>>>X>%>X%>>X>%%%>>>X>%>X%>>XXXXXXXXXXXXXXXXX                                .,............,.................",
"                >%%%%>%X%%%X%%>X>%%%%>%X%%%X%%>XX$$$$......$$$$X                                ,@,@@@@@@@@@@,@,................",
"                %XXX%%%X%%%X%%%X%XXX%%%X%%%X%%%XX$$$........$$$X                                ,@,@@@@@@@@@@,@,................",
"                %X>>XXXXXXXXXXXX%X>>XXXXXXXXXXXXX$$..........$$X                                .,==@=======@=,=................",
"                %X%%X>%>%>%%>%>X%X%%X>%>%>%%>%>XX$............$X                                .,............,.................",
"                %X%%%X%%%%%%%%%X%X%%%X%%%%%%%%%XX$............$X                                ,@,@@@@@@@@@@@,@................",
"                %X%%%X%XXXXXXXXX%X%%%X%XXXXXXXXXX..............X                                ,@,@@@@@@@@@@,@,................",
"                %XXXXXX%>%%>X>>%%XXXXXX%>%%>X>>%X..............X                                .,==@=======@,=,................",
"                X>%%%>%XXXXX%%%%X>%%%>%XXXXX%%%%X..............X                                .,............,.................",
"                %XXXXXX>X>>>%%%%%XXXXXX>X>>>%%%%X..............X                                ,@,@@@@@@@@@@,@,................",
"                @@@%%%@@X@>%@XXX@@@%%%@@X@>%@XXXX..............X                                ,@,@@@@@@@@@@,@,................",
"                XXXXXXXXXXXXX>>>XXXXXXXXXXXXX>>>X..............X                                .,==@=======@=,=................",
"                >>>X@>@%>@%>X%%%>>>X@>@%>@%>X%%%X..............X                                .,............,.................",
"                %%%XXXXXXXXXX%%%%%%XXXXXXXXXX%%%X..XXXXXXXXXX..X                                ,@,@@@@@@@@@@,@,................",
"                @@%%%@%%%%@@@X@@@@%%%@%%%%@@@X@@X.XXXXXXXXXXXX.X                                ,@,@@@@@@@@@@,@,................",
"                XXXXXXXXXXXXXXXXXXXXXXXXXXXXXXXXXXXXXXXXXXXXXXXX                                .,==@=======@=,=................",
"XXXXXXXXXX>>>>X@>%%%>>>X>%>X%>>XXXXXXXXXXX>>>>X@o=+@@@@@@@@@@+@o                                                .,,..,,..,,..,,.",
"XX>>>>X@XX>>%%XX>%%%%>%X%%%X%%>XXX>>>>X@XX>>%%XXo=+==========+=o                                                ,@@,,@@,,@@,,@@,",
"X>>%%%XXX>>%%%XX%XXX%%%X%%%X%%%XX>>%%%XXX>>%%%XXo=++++++++++++=o                                                =,,.=,,.=,,.=,,.",
"X>%%%%%XX>%%%XXXXX>>XXXXXXXXXXXXX>%%%%%XX>%%%XXXo=+oooooooooo+=o                                                =@@.=@@.=@@.=@@.",
"XX%%%%XX@X%%XXX>>X%%X>%>%>%%>%>XXX%%%%XX@X%%XXX>o=+@@@@@@@@@@+=o                                                @@@.@@@.@@@.@@@.",
"X@X%XXXXXXXXX@>>%X%%%X%%%%%%%%%XX@X%XXXXXXXXX@>>o=+==========+=o                                                =@@.=@@.=@@.=@@.",
"XXXXXXX>>XXXXX%%%X%%%X%XXXXXXXXXXXXXXXX>>XXXXX%%o=++++++++++++=o      ***              ***                      =@@.=@@.=@@.=@@.",
">>XX@X>>%%X@XXX%%XXXXXX%>%%>X>>%>>XX@X>>%%X@XXX%o=+oooooooooo+=o     *****            *****                     =@@.=@@.=@@.=@@.",
"%>>XXX>%%%XXXX@XX>%%%>%XXXXX%%%%%>>XXX>%%%XXXX@Xo=+@@@@@@@@@@+=o     X$XX$            $XX$X                     =@@.=@@.=@@.=@@.",
"%%%%XXX%%XX>>XXX%XXXXXX>X>>>%%%%%%%%XXX%%XX>>XXXo=+==========+=o     *X*$              $*X*                     =@@.=@@.=@@.=@@.",
"%%%%X@XXXX>>%%XX@@@%%%@@X@>%@XXX%%%%X@XXXX>>%%XXo=++++++++++++=o     $$$                $$$                     =@@.=@@.=@@.=@@.",
"X%%XXXXXXX>%%%%XXXXXXXXXXXXXX>>>X%%XXXXXXX>%%%%Xo=+oooooooooo+=o                                                =@@.=@@.=@@.=@@.",
"X%XXX>>>X@%%%%%X>>>X@>@%>@%>X%%%X%XXX>>>X@%%%%%Xo=+@@@@@@@@@@+=o                                                @@@.@@@.@@@.@@@.",
"XXXX>>%%%XX%%%XX%%%XXXXXXXXXX%%%XXXX>>%%%XX%%%XXo=+==========+=o                                                =,,.=,,.,,@.=,,.",
"XX@XX%%%XX@XXX@X@@%%%@%%%%@@@X@@XX@XX%%%XX@XXX@Xo=++++++++++++=o                                                ,@@,,@@,=@,,,@@,",
"XXXXXXXXXXXXXXXXXXXXXXXXXXXXXXXXXXXXXXXXXXXXXXXXo=+oooooooooo+=o                                                =,,.=,,.,,@.=,,.",
"@@@@@@@@@@@@@@@@XXXXXXXXXX>>>>X@XXXXXXXXXX>>>>X@                @@@@@@@@@@@@@@@@@@@@@@@@@@@@@@@@                                ",
"@@@@@@@@@@@@@@@@XX>>>>X@XX>>%%XXXX>>>>X@XX>>%%XX                @@@@@@@@@@@@@@@@@@@@@@@@@@@@@@@@                                ",
"@@@@@@@@@@@@&@@@X>>%%%XXX>>%%%XXX>>%%%XXX>>%%%XX                @@@@@@@@@@@@&@@@@@@@@@@@@@@@&@@@                                ",
"@@@&@@@@+@@@@@@@X>%%%%%XX>%%%XXXX>%%%%%XX>%%%XXX                @@@&@@@@+@@@@@@@@@@&@@@@+@@@@@@@                                ",
"@@@@@@@@@@@@@@@@XX%%%%XX@X%%XXX>XX%%%%XX@X%%XXX>                @@@@@@@@@@@@@@@@@@@@@@@@@@@@@@@@                                ",
"@@@@@@@@@@@@@@@@X@X%XXXXXXXXX@>>X@X%XXXXXXXXX@>>                @@@@@@@@@@@@@@@@@@@@@@@@@@@@@@@@                                ",
"@@@@@@@@@@@+@@@@XXXXXXX>>XXXXX%%XXXXXXX>>XXXXX%%                @@@@@@@@@@@+@@@@@@@@@@@@@@@+@@@@                                ",
"@@@@+@@@@@@@@@@@>>XX@X>>%%X@XXX%>>XX@X>>%%X@XXX%                @@@@+@@@@@@@@@@@@@@@+@@@@@@@@@@@                                ",
"@@@@@@@@&@@@@@@@%>>XXX>%%%XXXX@X%>>XXX>%%%XXXX@X                @@@@@@@@&@@@@@@@@@@@@@@@&@@@@@@@                                ",
"@@@@@@@@@@@@@@@@%%%%XXX%%XX>>XXX%%%%XXX%%XX>>XXX                @@@@@@@@@@@@@@@@@@@@@@@@@@@@@@@@                                ",
"@@@@@@@@@@@@&@@@%%%%X@XXXX>>%%XX%%%%X@XXXX>>%%XX                @@@@@@@@@@@@&@@@@@@@@@@@@@@@&@@@                                ",
"@@@@@@@@@@@@@@@@X%%XXXXXXX>%%%%XX%%XXXXXXX>%%%%X                @@@@@@@@@@@@@@@@@@@@@@@@@@@@@@@@                                ",
"@@@@@@@+@@@@@@@@X%XXX>>>X@%%%%%XX%XXX>>>X@%%%%%X                @@@@@@@+@@@@@@@@@@@@@@@+@@@@@@@@                                ",
"@@&@@@@@@@@@@+@@XXXX>>%%%XX%%%XXXXXX>>%%%XX%%%XX                @@&@@@@@@@@@@+@@@@&@@@@@@@@@@+@@                                ",
"@@@@@@@@@@@@@@@@XX@XX%%%XX@XXX@XXX@XX%%%XX@XXX@X                @@@@@@@@@@@@@@@@@@@@@@@@@@@@@@@@                                ",
"@@@@@@@@@@@@@@@@XXXXXXXXXXXXXXXXXXXXXXXXXXXXXXXX                @@@@@@@@@@@@@@@@@@@@@@@@@@@@@@@@                                ",
"@@@@@@@@@@@@@@@@@@@@@@@@@@@@@@@@@@@@@@@@@@@@@@@@                @@@@@@@@@@@@@@@@@@@@@@@@@@@@@@@@----------------                ",
"@@@@@***@@@@@@@@@@@@@@@@@@@@@@@@@@@@@@@@@@@@@@@@                @@@@@@@@@@@@@@@@@@@@@@@@@@@@@@@@----------------                ",
"@@@@*****@@@&@@@@@@@@@@@@@@@&@@@@@@@***@@@@@&@@@                @@@@@@@@@@@@&@@@@@@@@@@@@@@@&@@@----------------                ",
"@@@&$XX$X@@@@@@@@@@&@@@@+@@@@@@@@@@*****+@@@@@@@                @@@&@@@@+@@@@@@@@@@&@@@@+@@@@@@@----;::::;--;---                ",
"@@@@@$*X*@@@@@@@@@@@@@@@@@@@@@@@@@@X$XX$@@@@@@@@                @@@@@@@@@@@@@@@@@@@@@@@@@@@@@@@@----------------                ",
"@@@@@@$$$@@@@@@@@@@@@@@@@@@@@@@@@@@*X*$@@@@@@@@@                @@@@@@@@@@@@@@@@@@@@@@@@@@@@@@@@----------------                ",
"@@@@@@@@@@@+@@@@@@@@@@@@@@@+@@@@@@@$$$@@@@@+@@@@                @@@@@@@@@@@+@@@@@@@@@@@@@@@+@@@@----------------                ",
"@@@@+@@@@@@@@@@@@@@@+@@@@@@@@@@@@@@@+@@@@@@@@@@@                @@@@+@@@@@@@@@@@@@@@+@@@@@@@@@@@----------------                ",
"@@@@@@@@&@@@@@@@@@@***@@&@@@@@@@@@@@@@@@&@@@@@@@                @@@@@@@@&@@@@@@@@@@@@@@@&@@@@@@@----------------                ",
"@@@@@@@@@@@@@@@@@@*****@@@@@@@@@@@@@@@@@@@@@@@@@                @@@@@@@@@@@@@@@@@@@@@@@@@@@@@@@@----------------                ",
"@@@@@@@@@@@@&@@@@@X$XX$@@@@@&@@@@@@@@@@@@@@@&@@@                @@@@@@@@@@@@&@@@@@@@@@@@@@@@&@@@---;;:;---------                ",
"@@@@@@@@@@@@@@@@@@*X*$@@@@@@@@@@@@@@@@@@@@@@@@@@                @@@@@@@@@@@@@@@@@@@@@@@@@@@@@@@@----------------                ",
"@@@@@@@+@@@@@@@@@@$$$@@+@@@@@@@@@@@@@@@+@@@@@@@@                @@@@@@@+@@@@@@@@@@@@@@@+@@@@@@@@----------------                ",
"@@&@@@@@@@@@@+@@@@&@@@@@@@@@@+@@@@&@@@@@@@@@@+@@                @@&@@@@@@@@@@+@@@@&@@@@@@@@@@+@@-----------;:;;-                ",
"@@@@@@@@@@@@@@@@@@@@@@@@@@@@@@@@@@@@@@@@@@@@@@@@                @@@@@@@@@@@@@@@@@@@@@@@@@@@@@@@@----------------                ",
"@@@@@@@@@@@@@@@@@@@@@@@@@@@@@@@@@@@@@@@@@@@@@@@@                @@@@@@@@@@@@@@@@@@@@@@@@@@@@@@@@----------------                ",
"                                                                OOO##OOOOOOOOOOOOOO##OOOOOOOOOOO                                ",
"                                                                ##OOOOO###OOOOOO##OOOOO###OOOOOO                                ",
"                                                                OOOOOOOOO##OOOOOOOOOOOOOO##OOOOO                                ",
"                                                                ################################                                ",
"                                                                ##---###-##-#--###---###-##-#--#                                ",
"                                                                --------------------------------                                ",
"                                                                -----;::::;--;-------;::::;--;--                                ",
"                                                                --------------------------------                                ",
"                                                                --------------------------------                                ",
"                                                                --------------------------------                                ",
"                                                                ---;;:;------------;;:;---------                                ",
"                                                                --------------------------------                                ",
"                                                                --------------------------------                                ",
"                                                                -----------;:;;------------;:;;-                                ",
"                                                                --------------------------------                                ",
"                                                                --------------------------------                                ",
"                                                                                                                                ",
"                                                                                                                                ",
"                                                                                                                                ",
"                                                                                                                                ",
"                                                                                                                                ",
"                                                                                                                                ",
"                                                                                                                                ",
"                                                                                                                                ",
"                                                                                                                                ",
"                                                                                                                                ",
"                                                                                                                                ",
"                                                                                                                                ",
"                                                                                                                                ",
"                                                                                                                                ",
"                                                                                                                                ",
"                                                                                                                                "
};
