/* XPM */
static char *SnowTiles_6[] = {
/* columns rows colors chars-per-pixel */
"224 64 6 1 ",
"  c #122020",
". c #143464",
"X c #285CC4",
"o c #249FDE",
"O c #20D6C7",
"+ c white",
/* pixels */
"                                                                                                                                                                                                                                ",
"        XXXXXXXoooXXXXXXXXXXXXXX        XXXXXXXoooXXXXXXXXXXXXXX        XXXXXXXoooXXXXXXXXXXXXXX        XXXXXXXoooXXXXXXXXXXXXXX        XXXXXXXoooXXXXXXXXXXXXXX        XXXXXXXoooXXXXXXXXXXXXXX        XXXXXXXoooXXXXXXXXXXXXXX",
"     .....X.....o....XXXX...X...     ...........o....XXXX.......     ................XXXX.......     ...........o....XXXX.......     ...........o....XXXX.......     ................XXXX.......     ...........o....XXXX.......",
"    X.....X.....X.....X.X...X...    X.....X.....................    X...........................    X...........................    X...........................    X...........................    X.................X.........",
"  X.......X.....X.......X...X...  X.......X...........X.X...X...  X.............................  X.............................  X.............................  X.............................  X.............................",
"  .........X....X.......X.......  ........X.............X...X...  ..............................  ..............................  ..............................  ..............................  ..............................",
"  .........X............X.......  .........X............X...X...  ........X.....................  ..............................  ..............................  ..............................  ..............................",
"  .........X....................  .........X............X...X...  ........X...........X.X...X...  ..............................  ..............................  ..............................  ..............................",
"  ..............................  .........X....X...............  ........X.............X...X...  ..............................  ..............................  ..............................  ..............................",
"  ..............................  ..............X...............  .........X............X...X...  ..............................  ..............................  ..............................  ..............................",
"  ..............................  ..............X...............  .........X............X...X...  ..............................  ..............................  ..............................  ..............................",
"  ..............................  ..............X...............  .........X....X...............  ..............................  ..............................  ..............................  ..............................",
"     ...........................     ...........X...............     ...........X...............     .....X.....................     ...........................     ...........................     ...........................",
"  ..............................  ..............................  ..............X...............  ........X...........X.X...X...  ..............................  ..............................  ..............................",
"  ..............................  ..............................  ..............X...............  ........X.............X...X...  ..............................  ..............................  ..............................",
" ............................... ............................... ...............X............... ..........X............X...X... .........X..................... ............................... ...............................",
"...........................................................................................................X............X...X.............X...........X.X...X...................................................................",
"...........................................................................................................X....X.........................X.............X...X...................................................................",
"................................................................................................................X.......................................X...X...................................................................",
"................................................................................................................X..........................X............X...X...................................................................",
"................................................................................................................X..........................X....X...............................................................................",
"................................................................................................................X...............................X.........................X.....................................................",
"................................................................................................................................................X.........................X...........X.X...X...................................",
".......................................................X...............................X........................................................X.........................X.............X...X...................................",
".................X...............................X.....X.........................X.....X........................................................X..........................X............X...X...................................",
".................X...............................X.....X.........................X.....X...............................................................X...................X............X...X.............X...........X.X...X...",
".................X.....X.........................X.....X..X......................X.....X..X......................X.....................................X..X................X..............................X.............X...X...",
".................X.....X.........................X.....X..X......................X.....X..X......................X...............................X.....X..X................................................X............X...X...",
".................X.....X.........................X.....X..X......................X.....X..X......................X.....X.........................X.....X..X......................X.....X..X................X.....X......X...X...",
"...............XXXXX...X..X....................XXXXX...X..X....................XXXXX...X..X....................XXXXX...X..X....................XXXXX...X..X....................XXXXX...X..X................X...XXXXX............",
"..............XXXXXXX..X..X...................XXXXXXX..X..X...................XXXXXXX..X..X...................XXXXXXX..X..X...................XXXXXXX..X..X...................XXXXXXX..X..X...................XXXXXXX..X..X.....",
"XX++++++++++++++++++++++++++++XXXX+++X+++X+++++++++++++++++++XXXXX++X++++++++++X+++++X++++++++XXXX+++++++++X++++++++++X++++++XXXXX++X+++++X++++++++X++++++++++XXXX+++++o++++X++++o++++X+++++++XXXX+++++o++++X++++o++++X+++++++XX",
"....XXXXXXXOOXXXOXXOOOOXXXX.........XXXXXXXOOXXXXXXOOOOXOXX.........XXXXXXXOOXXXXXXOOOOXXXX.........XXXXXXXOOXXXXXXOOOOXXXX.........XXXXXXXOOXXXXXXOOOOXXXX.........XXXXXXXOOXXXXXXOOOOXXXX.........XXXXXXXOOXXXXXXOOOOXXXX.....",
"....XXXOXXXOOXXXOXXOOOOXXXX.X.X.....XXXXXXXOOXXXXXXOOOOXOXX.XXXX....XXXXXXXXOXXXXXXXXOOXXXX.XXXX....XXXXXXXOOXXXXXXOOOOXXXX.XXXX....XXXXXXXOOXXXXXXOOOOXXXX.XXXX....XXXXXXXOOXXXXXXXXOOXXXX.XXXX....XXXXXXXOOXXXXXXXXOOXXXX.XXXX",
"....XXXOXXXOOXXXOXXOXOXXXXXXX.X.....XXXXXXXOOXXXXXXOXOXXOXXXXXXX....XXXXXXXXOXXXXXXXXXXXXXXXXXXX....XXXXXXXOOXXXXXXXXXXXXXXXXXXX....XXXXXXXOOXXXXXXXXXXXXXXXXXXX....XXXXXXXXOXXXXXXXXXXXXXXXXXXX....XXXXXXXXOXXXXXXXXXXXXXXXXXXX",
"....XXXOXXXXOXXXXXXOXOXXOXXXX.X.....XXXXXXXXXXXXXXXOXOXXOXXXXXX.....XXXXXXXXXXXXXXXXXXXXXXXXXXX.....XXXXXXXXXXXXXXXXXXXXXXXXXXXX....XXXXXXXXXXXXXXXXXXXXXXXXXXXX....XXXXXXXXXXXXXXXXXXXXXXXXXXXX....XXXXXXXXXXXXXXXXXXXXXXXXXXXX",
"....XXXOXXXXOXXXXXXOXOXXOXXXX.XX....XXXXXXXXXXXXXXXOXOXXOXXXXXX.....XXXXXXXXXXXXXXXXXXXXXXXXXXX.....XXXXXXXXXXXXXXXXXXXXXXXXXXXX....XXXXXXXXXXXXXXXXXXXXXXXXXXXX....XXXXXXXXXXXXXXXXXXXXXXXXXXXX....XXXXXXXXXXXXXXXXXXXXXXXXXXXX",
"....XXXXXXXXXXXXXXXOXXXXOXXXX.XX....XXXXXXXXOXXXOXXOXOXXOXXXXXX.....XXXXXXXXXXXXOXXXXOXXXXXXXXX.....XXXXXXXXXXXXXXXXXXXXXXXXXXXX....XXXXXXXXXXXXXXXXXXXXXXXXXXXX....XXXXXXXXXXXXXXXXXXXXXXXXXXXX....XXXXXXXXXXXXXXXXXXXXXXXXXXXX",
"....XXXXXXXXXXXXXXXXXXXXOXXXX.XX....XXXXXXXXOXXXOXXOXOXXOXXXX.X.....XXXXXXXXXXXXOXXXXOXXOXXXX.X.....XXXXXXXXXXXXXXXXXXXXXXXXXXXX....XXXXXXXXXXXXXXXXXXXXXXXXXXXX....XXXXXXXXXXXXXXXXXXXXXXXXXXXX....XXXXXXXXXXXXXXXXXXXXXXXXXXXX",
"....XXXXXXXXXXXXXXXXXXXXXXXXX.XX....XXXOXXXXOXXXOXXOXOXXXXXXX.X.....XXXXXXXXXXXXOXXOXOXXOXXXX.X.....XXXXXXXXXXXXXXXXXXXXXXXXXXXX....XXXXXXXXXXXXXXXXXXXXXXXXXXXX....XXXXXXXXXXXXXXXXXXXXXXXXXXXX....XXXXXXXXXXXXXXXXXXXXXXXXXXXX",
"....XXXXXXXXXXXXXXXXXXXXXXXXXXXX....XXXOXXXXXXXXOXXOXXXXXXXXX.XX....XXXXXXXXXXXXOXXOXOXXOXXXX.XX....XXXXXXXXXXXXXXXXXXXXXXXXXXXX....XXXXXXXXXXXXXXXXXXXXXXXXXXXX....XXXXXXXXXXXXXXXXXXXXXXXXXXXX....XXXXXXXXXXXXXXXXXXXXXXXXXXXX",
"....XXXXXXXXXXXXXXXXXXXXXXXXXXXX....XXXOXXXXXXXXXXXXXXXXXXXXX.XX....XXXXXXXXXXXXXXXOXOXXOXXXX.XX....XXXXXXXXXXXXXXXXXXXXXXXXXXX.....XXXXXXXXXXXXXXXXXXXXXXXXXXXX....XXXXXXXXXXXXXXXXXXXXXXXXXXXX....XXXXXXXXXXXXXXXXXXXXXXXXXXXX",
"....XXXXXXXXXXXXXXXXXXXXXXXXXXXX....XXXOXXXXXXXXXXXXXXXXXXXXX.XX....XXXXXXXXOXXXXXXOXOXXOXXXX.XX....XXXXXXXXXXXXXXXXXXXXXXXXXXX.....XXXXXXXXXXXXXXXXXXXXXXXXXXXX....XXXXXXXXXXXXXXXXXXXXXXXXXXXX....XXXXXXXXXXXXXXXXXXXXXXXXXXXX",
"....XXXXXXXXXXXXXXXXXXXXXXXXXXXX....XXXXXXXXXXXXXXXXXXXXXXXXXXXX....XXXOXXXXOXXXXXXOXXXXOXXXXXXX....XXXXXXXXXXXXOXXXXOXXXXXXXXX.....XXXXXXXXXXXXXXXXXXXXXXXXXXXX....XXXXXXXXXXXXXXXXXXXXXXXXXXXX....XXXXXXXXXXXXXXXXXXXXXXXXXXXX",
"....XXXXXXXXXXXXXXXXXXXXXXXXXXXX....XXXXXXXXXXXXXXXXXXXXXXXXXXXX....XXXOXXXXOXXXXXXOXXXXXXXXXXXX....XXXXXXXXXXXXOXXXXOXXOXXXX.X.....XXXXXXXXXXXXXXXXXXXXXXXXXXX.....XXXXXXXXXXXXXXXXXXXXXXXXXXXX....XXXXXXXXXXXXXXXXXXXXXXXXXXXX",
"....XXXXXXXXXXXXXXXXXXXXXXXXXXXX....XXXXXXXXXXXXXXXXXXXXXXXXXXXX....XXXOXXXXOXXXXXXOXXXXXXXXXXXX....XXXXXXXXXXXXOXXOXOXXOXXXX.X.....XXXXXXXXXXXXXXXXXXXXXXXXXXX.....XXXXXXXXXXXXXXXXXXXXXXXXXXXX....XXXXXXXXXXXXXXXXXXXXXXXXXXXX",
"....XXXXXXXXXXXXXXXXXXXXXXXXXXXX....XXXXXXXXXXXXXXXXXXXXXXXXXXXX....XXXOXXXXXXXXXXXXXXXXXXXXXXXX....XXXXXXXXXXXXOXXOXOXXOXXXX.XX....XXXXXXXXXXXXOXXXXOXXXXXXXXX.....XXXXXXXXXXXXXXXXXXXXXXXXXXXX....XXXXXXXXXXXXXXXXXXXXXXXXXXXX",
"....XXXXXXXXXXXXXXXXXXXXXXXXXXXX....XXXXXXXXXXXXXXXXXXXXXXXXXXXX....XXXOXXXXXXXXXXXXXXXXXXXXXXXX....XXXXXXXXXXXXXXXOXOXXOXXXX.XX....XXXXXXXXXXXXOXXXXOXXOXXXX.X.....XXXXXXXXXXXXXXXXXXXXXXXXXXXX....XXXXXXXXXXXXXXXXXXXXXXXXXXXX",
"...XXXXXXXXXXXXXXXXXXXXXXXXXXXXX...XXXXXXXXXXXXXXXXXXXXXXXXXXXXX...XXXXXXXXXXXXXXXXXXXXXXXXXXXXX...XXXXXXXXXOXXXXXXOXOXXOXXXX.XX...XXXXXXXXXXXXXOXXOXOXXOXXXX.X....XXXXXXXXXXXXXXXXXXXXXXXXXXXXX...XXXXXXXXXXXXXXXXXXXXXXXXXXXXX",
"...XXXXXXXXXXXXXXXXXXXXXXXXXXXXX...XXXXXXXXXXXXXXXXXXXXXXXXXXXXX...XXXXXXXXXXXXXXXXXXXXXXXXXXXXX...XXXXOXXXXOXXXXXXOXXXXOXXXXXXX...XXXXXXXXXXXXXOXXOXOXXOXXXX.XX...XXXXXXXXXXXXXXXXXXXXXXXXXXXXX...XXXXXXXXXXXXXXXXXXXXXXXXXXXXX",
"...XXXXXXXXXXXXXXXXXXXXXXXXXXXXX...XXXXXXXXXXXXXXXXXXXXXXXXXXXXX...XXXXXXXXXXXXXXXXXXXXXXXXXXXXX...XXXXOXXXXOXXXXXXOXXXXXXXXXXXX...XXXXXXXXXXXXXXXXOXOXXOXXXX.XX...XXXXXXXXXXXXXXXXXXXXXXXXXXXX....XXXXXXXXXXXXXXXXXXXXXXXXXXXXX",
"...XXXXXXXXXXXXXXXXXXXXXXXXXXXXX...XXXXXXXXXXXXXXXXXXXXXXXXXXXXX...XXXXXXXXXXXXXXXXXXXXXXXXXXXXX...XXXXOXXXXOXXXXXXOXXXXXXXXXXXX...XXXXXXXXXOXXXXXXOXOXXOXXXX.XX...XXXXXXXXXXXXXXXXXXXXXXXXXXXX....XXXXXXXXXXXXXXXXXXXXXXXXXXXXX",
"...XXXXXXXXXXXXXXXXXXXXXXXXXXXXX...XXXXXXXXXXXXXXXXXXXXXXXXXXXXX...XXXXXXXXXXXXXXXXXXXXXXXXXXXXX...XXXXOXXXXXXXXXXXXXXXXXXXXXXXX...XXXXOXXXXOXXXXXXOXXXXOXXXXXXX...XXXXXXXXXXXXXOXXXXOXXXXXXXXX....XXXXXXXXXXXXXXXXXXXXXXXXXXXXX",
"...XXXXXXXXXXXXXXXXXXXXXXXXXXXXX...XXXXXXXXXXXXXXXXXXXXXXXXXXXXX...XXXXXXXXXXXXXXXXXXXXXXXXXXXXX...XXXXOXXXXXXXXXXXXXXXXXXXXXXXX...XXXXOXXXXOXXXXXXOXXXXXXXXXXXX...XXXXXXXXXXXXXOXXXXOXXOXXXX.X....XXXXXXXXXXXXXXXXXXXXXXXXXXXXX",
"...XXXXXXXXXXXXXXXXXXXXXXXXXXXXX...XXXXXXXXXXXXXXXXXXXXXXXXXXXXX...XXXXXXXXXXXXXXXXXXXXXXXXXXXXX...XXXXXXXXXXXXXXXXXXXXXXXXXXXXX...XXXXOXXXXOXXXXXXOXXXXXXXXXXXX...XXXXXXXXXXXXXOXXXXOXXOXXXX.X....XXXXXXXXXXXXXXXXXXXXXXXXXXXXX",
"..XXXXXXXXXXXXXXXXXXXXXXXXXXXXXX..XXXXXXXXXXXXXXXXXXXXXXXXXXXXXX..XXXXXXXXXXXXXXXXXXXXXXXXXXXXXX..XXXXXXXXXXXXXXXXXXXXXXXXXXXXXX..XXXXXOXXXXXXXXXXXXXXXXXXXXXXXX..XXXXXXXXXXXXXXOXXOXOXXOXXXX.XX..XXXXXXXXXXXXXXXXXXXXXXXXXXXXX+",
"O.XXXXXXXXXXXXXXXXXXXXXXXXXXXXXXO.XXXXXXXXXXXXXXXXXXXXXXXXXXXXXXO.XXXXXXXXXXXXXXXXXXXXXXXXXXXXXXO.XXXXXXXXXXXXXXXXXXXXXXXXXXXXXXO.XXXXXOX+XXXXXXXXXXXXXXXXXXXXXXO.XXXXXXXXXXXXXXXXXOXOXXOXXXX.XXO.XXXXXXXXX+XXXXXXXOXOXXXXXXX.XX",
"..XXXXXXXXXXXXXXXXXXXXXXXXXXXXXX..XXXXXXXXXXXXXXXXXXXXXXXXXXXXXX..XXXXXXXXXXXXXXXXXXXXXXXXXXXXXX..XXXXXXXXXXXXXXXXXXXXXXXXXXXXXX..XXXXXXXXXXXXXXXXXXXXXXXXXXXXXX..XXXX+XXXXXXXXXXXXOXOXXOXXXX.XX..XXXXXXXXXXXXXXXXXOXOXXOXXXX.X.",
"..OXXXXXXXXXXXXXXXXXXXXXXXXXXXXX..OXXXXXXXXXXXXXXXXXXXXXXXXXXXXX..OXXXXXXXXXXXXXXXXXXXXXXXXXXXXX..OXXXXXXXXXXXXXXXXXXXXXXXXXXXXX..OXXX+XXXXXXXXXXXXXXXXXXXXXXXXX..OX+XX+XXXXOXXXXXXOXXXXOXX+XXXX..+X+XXXXXXXXX+XXO+OXOXXOXX+X.X.",
"..X+++++XXXXXXXXXXXXXXX++++XXXXX..X++++++XXXXXXXXXXXXX+++++XXXX+..XXXXXXXXXXXXXXXXXXXXXXXXXXXXXX..X+++++XXXXXXXXXXXXXXX++++XXXXX..X+++++XXXXXXXXXXXXXXXXXX+XXXX+..X+++X+++XXOXXX+XXOXXXXXXXXXXXX..X++XXXXXXXXXXX+OXOXOX+O+XXX.+.",
"..+++++++XXXXXXXXXXXX+++++++XXXX..++++++++XXXXXXXXXX++++++++XX++..++++XXXXXXXXXXXXXXX++++XXXXXXX..+++++++XXXXXXXXXXXX+++++++XXXX..+++++++++XXXXXXXXXX+++++++XX++..+++++++++XO+XXXXXXX+++XXXX++++..++++XXXX+++++XXO+OX+XXOXXX++++",
"++++++++++++XXXX++++++++++++++++++++++++++++XXXX++++++++++++++++++++++++++++XXXX++++++++++++++++++++++++++++XXXX+++++++++++++++++++++++++++++++XXXXX++++++++++++++++++++++++OXXX+++++++++++++++++++++++++++++++++XXXXX++++++++++",
"++++++++++++++++++++++++++++++++++++++++++++++++++++++++++++++++++++++++++++++++++++++++++++++++++++++++++++++++++++++++++++++++++++++++++++++++++++++++++++++++++++++++++++++++++++++++++++++++++++++++++++++++++++++++++++++++",
"++++++++++++++++++++++++++++++++++++++++++++++++++++++++++++++++++++++++++++++++++++++++++++++++++++++++++++++++++++++++++++++++++++++++++++++++++++++++++++++++++++++++++++++++++++++++++++++++++++++++++++++++++++++++++++++++"
};
