/* XPM */
static char *SnowTiles_4[] = {
/* columns rows colors chars-per-pixel */
"130 120 22 1 ",
"  c None",
". c #060608",
"X c #141013",
"o c #221C1A",
"O c #122020",
"+ c #322B28",
"@ c #24523B",
"# c #1A7A3E",
"$ c #71413B",
"% c #143464",
"& c #FA6A0A",
"* c #BB7547",
"= c #14A02E",
"- c #59C135",
"; c #F9A31B",
": c #DBA463",
"> c #9CDB43",
", c #D6F264",
"< c #285CC4",
"1 c #249FDE",
"2 c #20D6C7",
"3 c #F4D29C",
/* pixels */
"                ,,>>>>>>>>>>>>>>>>>>>>>>>>>>>>>>>>>>>>>>>>>>>>>>>>>>>>>>>>>>>>>>>>>>>>>>>>>>>>@@                                  ",
"                ,,>>>>>>>>>>>>>>>>>>>>>>>>>>>>>>>>>>>>>>>>>>>>>>>>>>>>>>>>>>>>>>>>>>>>>>>>>>>>@@                                  ",
"                ,,>>>>>>>>>>>>>>>>>>>>>>>>>>>>>>>>>>>>>>>>>>>>>>>>>>>>>>>>>>>>>>>>>>>>>>>>>>>>@@                                  ",
"                ,,>>>>>>>>>>>>>>>>>>>>>>>>>>>>>>>>>>>>>>>>>>>>>>>>>>>>>>>>>>>>>>>>>>>>>>>>>>>>@@                                  ",
"                ,,>>>>>>>>>>>>>>>>>>>>>>>>>>>>>>>>>>>>>>>>>>>>>>>>>>>>>>>>>>>>>>>>>>>>>>>>>>>>@@                                  ",
"                ,,>>>>>>>>>>>>>>>>>>>>>>>>>>>>>>>>>>>>>>>>>>>>>>>>>>>>>>>>>>>>>>>>>>>>>>>>>>>>@@                                  ",
"                ,,>>>>>>>>>>>>>>>>>>>>>>>>>>>>>>>>>>>>>>>>>>>>>>>>>>>>>>>>>>>>>>>>>>>>>>>>>>>>@@                                  ",
"                ,,>>>>>>>>>>>>>>>>>>>>>>>>>>>>>>>>>>>>>>>>>>>>>>>>>>>>>>>>>>>>>>>>>>>>>>>>>>>>@@                                  ",
"                ,,>>>>>>>>>>>>>>>>>>>>>>>>>>>>>>>>>>>>>>>>>>>>>>>>>>>>>>>>>>>>>>>>>>>>>>>>>>>>@@                                  ",
"                ,,>>>>>>>>>>>>>>>>>>>>>>>>>>>>>>>>>>>>>>>>>>>>>>>>>>>>>>>>>>>>>>>>>>>>>>>>>>>>@@                                  ",
"                ,,>>>>>>>>>>>>>>>>>>>>>>>>>>>>>>>>>>>>>>>>>>>>>>>>>>>>>>>>>>>>>>>>>>>>>>>>>>>>@@                                  ",
"                ,,>>>>>>>>>>>>>>>>>>>>>>>>>>>>>>>>>>>>>>>>>>>>>>>>>>>>>>>>>>>>>>>>>>>>>>>>>>>>@@                                  ",
"                ,,>>>>>>>>>>>>>>>>>>>>>>>>>>>>>>>>>>>>>>>>>>>>>>>>>>>>>>>>>>>>>>>>>>>>>>>>>>>>@@                                  ",
"                ,,>>>>>>>>>>>>>>>>>>>>>>>>>>>>>>>>>>>>>>>>>>>>>>>>>>>>>>>>>>>>>>>>>>>>>>>>>>>>@@                                  ",
"                ,--------------->>>>>>>>>>>>>>>>>>>>>>>>>>>>>>>>>>>>>>>>>>>>>>>>---------------@                                  ",
"                ---------------->>>>>>>>>>>>>>>>>>>>>>>>>>>>>>>>>>>>>>>>>>>>>>>>----------------                                  ",
"                OOO%%OOOOOOOOOOO>>>>>>>>>>>>>>>>>>>>>>>>>>>>>>>>>>>>>>>>>>>>>>>>OOO%%OOOOOOOOOOOOOOOOOOOOOOOOOOOOOOOOOOOOOOOOOOO  ",
"                %%OOOOO%%%OOOOOO>>>>>>>>>>>>>>>>>>>>>>>>>>>>>>>>>>>>>>>>>>>>>>>>%%OOOOO%%%OOOOOOOOO-OOOO-OOO---OOOO-OOOO-OOO---O  ",
"                OOOOOOOOO%%OOOOO>>>>>>>>>>>>>>>>>>>>>>>>>>>>>>>>>>>>>>>>>>>>>>>>OOOOOOOOO%%OOOOOOO---OO---O-----OO---OO---O-----  ",
"                %%%%%%%%%%%%%%%%>>>>>>>>>>>>>>>>>>>>>>>>>>>>>>>>>>>>>>>>>>>>>>>>%%%%%%%%%%%%%%%%O==---O----O-=--O==---O----O-=--  ",
"                %%<<<%%%<%%<%<<%>>>>>>>>>>>>>>>>>>>>>>>>>>>>>>>>>>>>>>>>>>>>>>>>%%<<<%%%<%%<%<<%OO====O=--=OO===OO====O=--=OO===  ",
"                <<<<<<<<<<<<<<<<>>>>>>>>>>>>>>>>>>>>>>>>>>>>>>>>>>>>>>>>>>>>>>>><<<<<<<<<<<<<<<<OOO==OO===OOOO==OOO==OO===OOOO==  ",
"                <<<<<122221<<1<<>>>>>>>>>>>>>>>>>>>>>>>>>>>>>>>>>>>>>>>>>>>>>>>><<<<<122221<<1<<O-OOOOOO=OOO-OOOO-OOOOOO=OOO-OOO  ",
"                <<<<<<<<<<<<<<<<>>>>>>>>>>>>>>>>>>>>>>>>>>>>>>>>>>>>>>>>>>>>>>>><<<<<<<<<<<<<<<<O=---OOOOO----OOO=---OOOOO----OO  ",
"                <<<<<<<<<<<<<<<<>>>>>>>>>>>>>>>>>>>>>>>>>>>>>>>>>>>>>>>>>>>>>>>><<<<<<<<<<<<<<<<O==-==O==----OOOO==-==O==----OOO  ",
"                <<<<<<<<<<<<<<<<>>>>>>>>>>>>>>>>>>>>>>>>>>>>>>>>>>>>>>>>>>>>>>>><<<<<<<<<<<<<<<<OO===OOO=====O--OO===OOO=====O--  ",
"                <<<1121<<<<<<<<<>>>>>>>>>>>>>>>>>>>>>>>>>>>>>>>>>>>>>>>>>>>>>>>><<<1121<<<<<<<<<-OOOOOOOO===O----OOOOOOOO===O---  ",
"                <<<<<<<<<<<<<<<<>>>>>>>>>>>>>>>>>>>>>>>>>>>>>>>>>>>>>>>>>>>>>>>><<<<<<<<<<<<<<<<--OOO---OOOO------OOO---OOOO----  ",
"                <<<<<<<<<<<<<<<<>>>>>>>>>>>>>>>>>>>>>>>>>>>>>>>>>>>>>>>>>>>>>>>><<<<<<<<<<<<<<<<-=OO=----OOO=----=OO=----OOO=---  ",
"                <<<<<<<<<<<1211<>>>>>>>>>>>>>>>>>>>>>>>>>>>>>>>>>>>>>>>>>>>>>>>><<<<<<<<<<<1211<===O==----OO==-====O==----OO==-=  ",
"                <<<<<<<<<<<<<<<<---------------->>>>>>>>>>>>>>>>----------------<<<<<<<<<<<<<<<<==OOO==--==OO=====OOO==--==OO===  ",
"                <<<<<<<<<<<<<<<<---------------->>>>>>>>>>>>>>>>----------------<<<<<<<<<<<<<<<<=OOOOO====OOOO===OOOOO====OOOO==  ",
"OOO%%OOOOOOOOOOO<<<<<<<<<<<<<<<<OOO%%OOOOOOOOOOO>>>>>>>>>>>>>>>>OOO%%OOOOOOOOOOO<<<<<<<<<<<<<<<<OOO@@@@==@@@@@OOOOO@@@@OO@@@@@OO  ",
"%%OOOOO%%%OOOOOO<<<<<<<<<<<<<<<<%%OOOOO%%%OOOOOO>>>>>>>>>>>>>>>>%%OOOOO%%%OOOOOO<<<<<<<<<<<<<<<<OO#@@@@@@O@@@@@OOO#@@@@@@O@@@@@O  ",
"OOOOOOOOO%%OOOOO<<<<<<<<<<<<<<<<OOOOOOOOO%%OOOOO>>>>>>>>>>>>>>>>OOOOOOOOO%%OOOOO<<<<<<<<<<<<<<<<O###@@@@@O@@@@@@O###@@@@@O@@@@@@  ",
"%%%%%%%%%%%%%%%%<<<<122221<<1<<<%%%%%%%%%%%%%%%%>>>>>>>>>>>>>>>>%%%%%%%%%%%%%%%%<<<<122221<<1<<<O####@@@OO@@@@@@O####@@@OO@@@@@@  ",
"%%<<<%%%<%%<%<<%<<<<<<<<<<<<<<<<%%<<<%%%<%%<%<<%>>>>>>>>>>>>>>>>%%<<<%%%<%%<%<<%<<<<<<<<<<<<<<<<O=######@O@@@@@@O=######@O@@@@@@  ",
"<<<<<<<<<<<<<<<<<<<<<<<<<<<<<<<<<<<<<<<<<<<<<<<<>>>>>>>>>>>>>>>><<<<<<<<<<<<<<<<<<<<<<<<<<<<<<<<OO=#####OO##@@#@OO=#####OO##@@#@  ",
"<<<<<122221<<1<<<<<<<<<<<<<<<<<<<<<<<122221<<1<<>>>>>>>>>>>>>>>><<<<<122221<<1<<<<<<<<<<<<<<<<<<OOO==####O#####@OOO==####O#####@  ",
"<<<<<<<<<<<<<<<<<<<<<<<<<<<<<<<<<<<<<<<<<<<<<<<<>>>>>>>>>>>>>>>><<<<<<<<<<<<<<<<<<<<<<<<<<<<<<<<O#@@O=#OO######OO#@@O=#OO######O  ",
"<<<<<<<<<<<<<<<<<<<<<<<<<<<<<<<<<<<<<<<<<<<<<<<<>>>>>>>>>>>>>>>><<<<<<<<<<<<<<<<<<<<<<<<<<<<<<<<##@@OOO=######OO##@@OOO=######OO  ",
"<<<<<<<<<<<<<<<<<<<<<<<<<<<<<<<<<<<<<<<<<<<<<<<<>>>>>>>>>>>>>>>><<<<<<<<<<<<<<<<<<<<<<<<<<<<<<<<##@@OO==######OO##@@OO==######OO  ",
"<<<1121<<<<<<<<<<<<1121<<<<<<<<<<<<1121<<<<<<<<<----------------<<<1121<<<<<<<<<<<<1121<<<<<<<<<=##@OO===#===OO@=##@OO===#===OO@  ",
"<<<<<<<<<<<<<<<<<<<<<<<<<<<<<<<<<<<<<<<<<<<<<<<<================<<<<<<<<<<<<<<<<<<<<<<<<<<<<<<<<O=##@OO=====OO@@O=##@OO=====OO@@  ",
"<<<<<<<<<<<<<<<<<<<<<<<<<<<<<<<<<<<<<<<<<<<<<<<<>>>>>>>>>>>>>>>><<<<<<<<<<<<<<<<<<<<<<<<<<<<<<<<O==##@OOO==OO###O==##@OOO==OO###  ",
"<<<<<<<<<<<1211<<<<<<<<<<<<1211<<<<<<<<<<<<1211<>>>>>>>>>>>>>>>><<<<<<<<<<<1211<<<<<<<<<<<<1211<OO=###@@OOO==##OOO=###@@OOO==##O  ",
"<<<<<<<<<<<<<<<<<<<<<<<<<<<<<<<<<<<<<<<<<<<<<<<<----------------<<<<<<<<<<<<<<<<<<<<<<<<<<<<<<<<OOO==###@OO====OOOO==###@OO====O  ",
"<<<<<<<<<<<<<<<<<<<<<<<<<<<<<<<<<<<<<<<<<<<<<<<<================<<<<<<<<<<<<<<<<<<<<<<<<<<<<<<<<OOOOOOOOOOOOOOOOOOOOOOOOOOOOOOOO  ",
"                                <<<<<<<<<<<<<<<<OOOOOOOOOOOOOOOO<<<<<<<<<<<<<<<<.3............3.................                  ",
"                                <<<<<<<<<<<<<<<<O--------------O<<<<<<<<<<<<<<<<3$3$$$$$$$$$$3$3................                  ",
"                                <<<<<<<<<<<<<<<<O-############-O<<<<<<<<<<<<<<<<3$3$$$$$$$$$$3$3................                  ",
"                                <<<<122221<<1<<<O-#OOOOOOOOOO#-O<<<<122221<<1<<<.3::$:::::::$:3:................                  ",
"                                <<<<<<<<<<<<<<<<O-#O--------O#-O<<<<<<<<<<<<<<<<.3............3.................                  ",
"                                <<<<<<<<<<<<<<<<O-#O-######-O#-O<<<<<<<<<<<<<<<<3$3$$$$$$$$$$$3$................                  ",
"                                <<<<<<<<<<<<<<<<O-#O-######-O#-O<<<<<<<<<<<<<<<<3$3$$$$$$$$$$3$3................                  ",
"                                <<<<<<<<<<<<<<<<O-#O-######-O#-O<<<<<<<<<<<<<<<<.3::$:::::::$3:3................                  ",
"                                <<<<<<<<<<<<<<<<O-#O-######-O#-O<<<<<<<<<<<<<<<<.3............3.................                  ",
"                                <<<<<<<<<<<<<<<<O-#O-######-O#-O<<<<<<<<<<<<<<<<3$3$$$$$$$$$$3$3................                  ",
"                                <<<1121<<<<<<<<<O-#O-######-O#-O<<<1121<<<<<<<<<3$3$$$$$$$$$$3$3................                  ",
"                                <<<<<<<<<<<<<<<<O-#O-######-O#-O<<<<<<<<<<<<<<<<.3::$:::::::$:3:................                  ",
"                                <<<<<<<<<<<<<<<<O-#OOOOOOOOOO#-O<<<<<<<<<<<<<<<<.3............3.................                  ",
"                                <<<<<<<<<<<1211<O-############-O<<<<<<<<<<<1211<3$3$$$$$$$$$$3$3................                  ",
"                                <<<<<<<<<<<<<<<<O-############-O<<<<<<<<<<<<<<<<3$3$$$$$$$$$$3$3................                  ",
"                                <<<<<<<<<<<<<<<<OOOOOOOOOOOOOOOO<<<<<<<<<<<<<<<<.3::$:::::::$:3:................                  ",
"                                OOOOOOOOOOOOOOOOOOOOOOOOOOOOOOOO                                .33..33..33..33.                  ",
"                                O--------------OO--------------O                                3$$33$$33$$33$$3                  ",
"                                O-############-OO-############-O                                :33.:33.:33.:33.                  ",
"                                O-#OOOOOOOOOO#-OO-#OOOOOOOOOO#-O                                :$$.:$$.:$$.:$$.                  ",
"                                O-#O--------O#-OO-#O--------O#-O                                $$$.$$$.$$$.$$$.                  ",
"                                O-#O-######-O#-OO-#O-######-O#-O                                :$$.:$$.:$$.:$$.                  ",
"                                O-#O-######-O#-OO-#O-######-O#-O                                :$$.:$$.:$$.:$$.                  ",
"                                O-#O-######-O#-OO-#O-######-O#-O                                :$$.:$$.:$$.:$$.                  ",
"                                O-#O-######-O#-OO-#O-######-O#-O                                :$$.:$$.:$$.:$$.                  ",
"                                O-#O-######-O#-OO-#O-######-O#-O                                :$$.:$$.:$$.:$$.                  ",
"                                O-#O-######-O#-OO-#O-######-O#-O                                :$$.:$$.:$$.:$$.                  ",
"                                O-#O-######-O#-OO-#O-######-O#-O                                :$$.:$$.:$$.:$$.                  ",
"                                O-#OOOOOOOOOO#-OO-#OOOOOOOOOO#-O                                $$$.$$$.$$$.$$$.                  ",
"                                O-############-OO-############-O                                :33.:33.33$.:33.                  ",
"                                O-############-OO-############-O                                3$$33$$3:$333$$3                  ",
"                                OOOOOOOOOOOOOOOOOOOOOOOOOOOOOOOO                                :33.:33.33$.:33.                  ",
"$$$$$$$$$$$$$$$$<<<<<<<<<<<<<<<<OOO%%OOOOOOOOOOO................XXXXXXXXXXXXXXXX.................,-..,-..,-..,-.OOOO#OO#OOOO#OOO  ",
"$$$$$$$$$$$$$;$$<<<<<<<<<<<<<<<<%%OOOOO%%%OOOOOO----------------XOOOO......OOOOX----------------,--.,--.,--.,--.OOO##OO#OOO##OO#  ",
"$$$&$$$$$$$$$$$$<<<<<<<<<<<<<<<<OOOOOOOOO%%OOOOO,--------------,XOOO........OOOX,--------------,,--.,--.,--.,--.OO##OO##O###OO##  ",
"$$$O$$$$$$$$$$$$<<<<122221<<1<<<%%%%%%%%%%%%%%%%.,,,-,,,,,,,-,,.XOO..........OOX.,,,-,,,,,,,-,,.,--.,--.,--.,--.###OO##O###OO##O  ",
"$$$$$$$$$$$$$$$$<<<<<<<<<<<<<<<<%%<<<%%%<%%<%<<%................XO............OX................---.---.---.---.##OO##O#######OO  ",
"$$$$$$$;$$$$$$$$<<<<<<<<<<<<<<<<<<<<<<<<<<<<<<<<----------------XO............OX----------------,--.,--.,--.,--.OO###O##OOOOOOOO  ",
"$$$$$$$$$$$$$&$$<<<<<<<<<<<<<<<<<<<<<122221<<1<<,--------------,X..............X,--------------,,--.,--.,--.,--.O###O##OO#OOO###  ",
"$$;$$$$$$$$$$O$$<<<<<<<<<<<<<<<<<<<<<<<<<<<<<<<<.,,,-,,,,,,,-,,.X..............X.,,,-,,,,,,,-,,.,--.,--.,--.,--.##OO##OO##O###OO  ",
"$$$$$$$$$$$$$$$$<<<<<<<<<<<<<<<<<<<<<<<<<<<<<<<<................X..............X................,--.,--.,--.,--.#OO##OO##OO##OOO  ",
"$$$$$$$$$$$$$$$$<<<<<<<<<<<<<<<<<<<<<<<<<<<<<<<<----------------X..............X----------------,--.,--.,--.,--.O###OO##OO##OOO#  ",
"$$$$$$$$$$$$$$$$<<<1121<<<<<<<<<<<<1121<<<<<<<<<,--------------,X..............X,--------------,,--.,--.,--.,--.###OO##OO##OO##O  ",
"$$$$&$$$$$$$$$$$<<<<<<<<<<<<<<<<<<<<<<<<<<<<<<<<.,,,-,,,,,,,-,,.X..............X.,,,-,,,,,,,-,,.,--.,--.,--.,--.#OOO##OO##OO##OO  ",
"$$$$O$$$$$$$;$$$<<<<<<<<<<<<<<<<<<<<<<<<<<<<<<<<................X..............X................---.---.---.---.OOO##OOO#OO##OOO  ",
"$$$$$$$$$$$$$$$$<<<<<<<<<<<1211<<<<<<<<<<<<1211<----------------X..XXXXXXXXXX..X----------------,--.,--.,--.,--.OO######OO##OO##  ",
"$$;$$$$$$$$$$$$$<<<<<<<<<<<<<<<<<<<<<<<<<<<<<<<<,--------------,X.XXXXXXXXXXXX.X,--------------,,--.,--.,--.,--.O####OOOO##OO##O  ",
"$$$$$$$$$$$$$$$$<<<<<<<<<<<<<<<<<<<<<<<<<<<<<<<<.,,,-,,,,,,,-,,.XXXXXXXXXXXXXXXX.,,,-,,,,,,,-,,..,-..,-..,-..,-.##OOOOOO##OO##OO  ",
"                                                ................                o*+$$$$$$$$$$+$o<<<<<<<<<<<<<<<<OOO%%OOOOOOOOOOO  ",
"                                                ----------------                o*+**********+*o<<<<<<<<<<<<<<<<%%OOOOO%%%OOOOOO  ",
"                                                ,--------------,                o*++++++++++++*o<<<<<<<<<<<<<<<<OOOOOOOOO%%OOOOO  ",
"                                                .,,,-,,,,,,,-,,.                o*+oooooooooo+*o<<<<122221<<1<<<%%%%%%%%%%%%%%%%  ",
"                                                ................                o*+$$$$$$$$$$+*o<<<<<<<<<<<<<<<<%%<<<%%%<%%<%<<%  ",
"                                                ----------------                o*+**********+*o<<<<<<<<<<<<<<<<<<<<<<<<<<<<<<<<  ",
"                                                ,--------------,                o*++++++++++++*o<<<<<<<<<<<<<<<<<<<<<122221<<1<<  ",
"                                                .,,,-,,,,,,,-,,.                o*+oooooooooo+*o<<<<<<<<<<<<<<<<<<<<<<<<<<<<<<<<  ",
"                                                ................                o*+$$$$$$$$$$+*o<<<<<<<<<<<<<<<<<<<<<<<<<<<<<<<<  ",
"                                                ----------------                o*+**********+*o<<<<<<<<<<<<<<<<<<<<<<<<<<<<<<<<  ",
"                                                ,--------------,                o*++++++++++++*o<<<1121<<<<<<<<<<<<1121<<<<<<<<<  ",
"                                                .,,,-,,,,,,,-,,.                o*+oooooooooo+*o<<<<<<<<<<<<<<<<<<<<<<<<<<<<<<<<  ",
"                                                ................                o*+$$$$$$$$$$+*o<<<<<<<<<<<<<<<<<<<<<<<<<<<<<<<<  ",
"                                                ----------------                o*+**********+*o<<<<<<<<<<<1211<<<<<<<<<<<<1211<  ",
"                                                ,--------------,                o*++++++++++++*o<<<<<<<<<<<<<<<<<<<<<<<<<<<<<<<<  ",
"                                                .,,,-,,,,,,,-,,.                o*+oooooooooo+*o<<<<<<<<<<<<<<<<<<<<<<<<<<<<<<<<  ",
"                                                                                                                                  ",
"                                                                                                                                  ",
"                                                                                                                                  ",
"                                                                                                                                  ",
"                                                                                                                                  ",
"                                                                                                                                  ",
"                                                                                                                                  ",
"                                                                                                                                  "
};
